<mxfile host="Electron" agent="Mozilla/5.0 (Macintosh; Intel Mac OS X 10_15_7) AppleWebKit/537.36 (KHTML, like Gecko) draw.io/28.0.4 Chrome/138.0.7204.97 Electron/37.2.1 Safari/537.36" version="28.0.4">
  <diagram name="Pagina-1" id="-vVdBNsxXLUTpmMMnHD9">
    <mxGraphModel dx="2864" dy="3464" grid="1" gridSize="10" guides="1" tooltips="1" connect="1" arrows="1" fold="1" page="1" pageScale="1" pageWidth="827" pageHeight="1169" math="0" shadow="0">
      <root>
        <mxCell id="0" />
        <mxCell id="1" parent="0" />
        <mxCell id="L9ycZ2wKz4MPZfXjeffK-10" value="" style="edgeStyle=orthogonalEdgeStyle;rounded=0;orthogonalLoop=1;jettySize=auto;html=1;endArrow=open;endFill=0;exitX=0.5;exitY=1;exitDx=0;exitDy=0;exitPerimeter=0;" parent="1" source="L9ycZ2wKz4MPZfXjeffK-1" edge="1">
          <mxGeometry relative="1" as="geometry">
            <Array as="points">
              <mxPoint x="405" y="-1490" />
              <mxPoint x="290" y="-1490" />
            </Array>
            <mxPoint x="290" y="-1220" as="targetPoint" />
            <mxPoint x="451.25" y="-1790" as="sourcePoint" />
          </mxGeometry>
        </mxCell>
        <mxCell id="L9ycZ2wKz4MPZfXjeffK-1" value="API" style="shape=folder;fontStyle=1;spacingTop=10;tabWidth=40;tabHeight=14;tabPosition=left;html=1;whiteSpace=wrap;fillColor=#1ba1e2;strokeColor=#006EAF;fontColor=#ffffff;" parent="1" vertex="1">
          <mxGeometry x="330" y="-1710" width="150" height="100" as="geometry" />
        </mxCell>
        <mxCell id="L9ycZ2wKz4MPZfXjeffK-5" value="PERSISTENCE" style="shape=folder;fontStyle=1;spacingTop=10;tabWidth=40;tabHeight=14;tabPosition=left;html=1;whiteSpace=wrap;fillColor=#1ba1e2;strokeColor=#006EAF;fontColor=#ffffff;" parent="1" vertex="1">
          <mxGeometry x="-40" y="-490" width="150" height="100" as="geometry" />
        </mxCell>
        <mxCell id="L9ycZ2wKz4MPZfXjeffK-6" value="INTEGRATION" style="shape=folder;fontStyle=1;spacingTop=10;tabWidth=40;tabHeight=14;tabPosition=left;html=1;whiteSpace=wrap;fillColor=#1ba1e2;strokeColor=#006EAF;fontColor=#ffffff;" parent="1" vertex="1">
          <mxGeometry x="410" y="-490" width="150" height="100" as="geometry" />
        </mxCell>
        <mxCell id="L9ycZ2wKz4MPZfXjeffK-11" value="" style="edgeStyle=orthogonalEdgeStyle;rounded=0;orthogonalLoop=1;jettySize=auto;html=1;endArrow=open;endFill=0;" parent="1" source="L9ycZ2wKz4MPZfXjeffK-7" target="L9ycZ2wKz4MPZfXjeffK-5" edge="1">
          <mxGeometry relative="1" as="geometry">
            <Array as="points">
              <mxPoint x="290" y="-740" />
              <mxPoint x="55" y="-740" />
            </Array>
          </mxGeometry>
        </mxCell>
        <mxCell id="L9ycZ2wKz4MPZfXjeffK-12" style="edgeStyle=orthogonalEdgeStyle;rounded=0;orthogonalLoop=1;jettySize=auto;html=1;endArrow=open;endFill=0;" parent="1" source="L9ycZ2wKz4MPZfXjeffK-7" target="L9ycZ2wKz4MPZfXjeffK-6" edge="1">
          <mxGeometry relative="1" as="geometry">
            <Array as="points">
              <mxPoint x="290" y="-740" />
              <mxPoint x="505" y="-740" />
            </Array>
          </mxGeometry>
        </mxCell>
        <mxCell id="kY3cHxhV4RNwmErgkKas-16" style="edgeStyle=orthogonalEdgeStyle;rounded=0;orthogonalLoop=1;jettySize=auto;html=1;dashed=1;endArrow=none;endFill=0;" parent="1" source="L9ycZ2wKz4MPZfXjeffK-7" target="L9ycZ2wKz4MPZfXjeffK-62" edge="1">
          <mxGeometry relative="1" as="geometry">
            <Array as="points">
              <mxPoint x="610" y="-1170" />
              <mxPoint x="610" y="-1170" />
            </Array>
          </mxGeometry>
        </mxCell>
        <mxCell id="kY3cHxhV4RNwmErgkKas-17" value="CONSUMER" style="shape=folder;fontStyle=1;spacingTop=10;tabWidth=40;tabHeight=14;tabPosition=left;html=1;whiteSpace=wrap;fillColor=#1ba1e2;strokeColor=#006EAF;fontColor=#ffffff;" parent="1" vertex="1">
          <mxGeometry x="110" y="-1710" width="150" height="100" as="geometry" />
        </mxCell>
        <mxCell id="UTaYGyWFaG9Oa4qHJL6B-6" style="edgeStyle=orthogonalEdgeStyle;rounded=0;orthogonalLoop=1;jettySize=auto;html=1;dashed=1;endArrow=none;endFill=0;exitX=0;exitY=0;exitDx=150;exitDy=57;exitPerimeter=0;entryX=-0.002;entryY=0.161;entryDx=0;entryDy=0;entryPerimeter=0;" parent="1" source="L9ycZ2wKz4MPZfXjeffK-6" target="kY3cHxhV4RNwmErgkKas-79" edge="1">
          <mxGeometry relative="1" as="geometry">
            <Array as="points">
              <mxPoint x="626" y="-433" />
            </Array>
            <mxPoint x="330" y="-232" as="sourcePoint" />
            <mxPoint x="615" y="-232" as="targetPoint" />
          </mxGeometry>
        </mxCell>
        <mxCell id="UTaYGyWFaG9Oa4qHJL6B-7" style="edgeStyle=orthogonalEdgeStyle;rounded=0;orthogonalLoop=1;jettySize=auto;html=1;dashed=1;endArrow=none;endFill=0;exitX=0.999;exitY=0.099;exitDx=0;exitDy=0;exitPerimeter=0;entryX=0.006;entryY=0.307;entryDx=0;entryDy=0;entryPerimeter=0;" parent="1" edge="1">
          <mxGeometry relative="1" as="geometry">
            <Array as="points">
              <mxPoint x="-80" y="-431" />
              <mxPoint x="-80" y="-431" />
            </Array>
            <mxPoint x="-120.38000000000011" y="-430.40999999999985" as="sourcePoint" />
            <mxPoint x="-39.09999999999991" y="-430.2999999999997" as="targetPoint" />
          </mxGeometry>
        </mxCell>
        <mxCell id="UTaYGyWFaG9Oa4qHJL6B-15" value="" style="group" parent="1" vertex="1" connectable="0">
          <mxGeometry x="640" y="-2230" width="650" height="800" as="geometry" />
        </mxCell>
        <mxCell id="L9ycZ2wKz4MPZfXjeffK-14" value="" style="shape=folder;fontStyle=1;spacingTop=10;tabWidth=40;tabHeight=14;tabPosition=left;html=1;whiteSpace=wrap;" parent="UTaYGyWFaG9Oa4qHJL6B-15" vertex="1">
          <mxGeometry width="530" height="800" as="geometry" />
        </mxCell>
        <mxCell id="L9ycZ2wKz4MPZfXjeffK-48" value="" style="edgeStyle=orthogonalEdgeStyle;rounded=0;orthogonalLoop=1;jettySize=auto;html=1;entryX=0.519;entryY=0.001;entryDx=0;entryDy=0;entryPerimeter=0;endArrow=open;endFill=0;" parent="UTaYGyWFaG9Oa4qHJL6B-15" source="L9ycZ2wKz4MPZfXjeffK-47" target="L9ycZ2wKz4MPZfXjeffK-46" edge="1">
          <mxGeometry relative="1" as="geometry">
            <Array as="points">
              <mxPoint x="188" y="210" />
              <mxPoint x="243" y="210" />
            </Array>
          </mxGeometry>
        </mxCell>
        <mxCell id="L9ycZ2wKz4MPZfXjeffK-47" value="" style="verticalLabelPosition=bottom;verticalAlign=top;html=1;shape=mxgraph.basic.rect;fillColor2=none;strokeWidth=1;size=20;indent=5;fillColor=none;dashed=1;" parent="UTaYGyWFaG9Oa4qHJL6B-15" vertex="1">
          <mxGeometry x="20" y="40" width="280" height="150" as="geometry" />
        </mxCell>
        <mxCell id="L9ycZ2wKz4MPZfXjeffK-46" value="" style="verticalLabelPosition=bottom;verticalAlign=top;html=1;shape=mxgraph.basic.rect;fillColor2=none;strokeWidth=1;size=20;indent=5;fillColor=none;dashed=1;" parent="UTaYGyWFaG9Oa4qHJL6B-15" vertex="1">
          <mxGeometry x="20" y="230" width="430" height="560" as="geometry" />
        </mxCell>
        <mxCell id="L9ycZ2wKz4MPZfXjeffK-53" value="" style="edgeStyle=orthogonalEdgeStyle;rounded=0;orthogonalLoop=1;jettySize=auto;html=1;entryX=0.485;entryY=0.003;entryDx=0;entryDy=0;entryPerimeter=0;endArrow=open;endFill=0;" parent="UTaYGyWFaG9Oa4qHJL6B-15" edge="1">
          <mxGeometry relative="1" as="geometry">
            <mxPoint x="247" y="300" as="sourcePoint" />
            <mxPoint x="245.74999999999977" y="320.2940000000001" as="targetPoint" />
          </mxGeometry>
        </mxCell>
        <mxCell id="L9ycZ2wKz4MPZfXjeffK-15" value="ICommand" style="html=1;whiteSpace=wrap;" parent="UTaYGyWFaG9Oa4qHJL6B-15" vertex="1">
          <mxGeometry x="125" y="250" width="200" height="50" as="geometry" />
        </mxCell>
        <mxCell id="L9ycZ2wKz4MPZfXjeffK-16" value="RestController" style="swimlane;fontStyle=0;childLayout=stackLayout;horizontal=1;startSize=26;fillColor=none;horizontalStack=0;resizeParent=1;resizeParentMax=0;resizeLast=0;collapsible=1;marginBottom=0;whiteSpace=wrap;html=1;" parent="UTaYGyWFaG9Oa4qHJL6B-15" vertex="1">
          <mxGeometry x="120" y="62" width="160" height="52" as="geometry">
            <mxRectangle x="860" y="-490" width="100" height="30" as="alternateBounds" />
          </mxGeometry>
        </mxCell>
        <mxCell id="L9ycZ2wKz4MPZfXjeffK-17" value="+ v1/endpoint: Resource" style="text;strokeColor=none;fillColor=none;align=left;verticalAlign=top;spacingLeft=4;spacingRight=4;overflow=hidden;rotatable=0;points=[[0,0.5],[1,0.5]];portConstraint=eastwest;whiteSpace=wrap;html=1;" parent="L9ycZ2wKz4MPZfXjeffK-16" vertex="1">
          <mxGeometry y="26" width="160" height="26" as="geometry" />
        </mxCell>
        <mxCell id="L9ycZ2wKz4MPZfXjeffK-20" value="api.v1" style="shape=folder;fontStyle=1;spacingTop=10;tabWidth=40;tabHeight=14;tabPosition=left;html=1;whiteSpace=wrap;" parent="UTaYGyWFaG9Oa4qHJL6B-15" vertex="1">
          <mxGeometry x="28" y="64" width="70" height="50" as="geometry" />
        </mxCell>
        <mxCell id="L9ycZ2wKz4MPZfXjeffK-22" value="api.v2" style="shape=folder;fontStyle=1;spacingTop=10;tabWidth=40;tabHeight=14;tabPosition=left;html=1;whiteSpace=wrap;" parent="UTaYGyWFaG9Oa4qHJL6B-15" vertex="1">
          <mxGeometry x="28" y="130" width="70" height="50" as="geometry" />
        </mxCell>
        <mxCell id="L9ycZ2wKz4MPZfXjeffK-23" value="command" style="shape=folder;fontStyle=1;spacingTop=10;tabWidth=40;tabHeight=14;tabPosition=left;html=1;whiteSpace=wrap;" parent="UTaYGyWFaG9Oa4qHJL6B-15" vertex="1">
          <mxGeometry x="28" y="250" width="70" height="50" as="geometry" />
        </mxCell>
        <mxCell id="L9ycZ2wKz4MPZfXjeffK-24" value="RestController" style="swimlane;fontStyle=0;childLayout=stackLayout;horizontal=1;startSize=26;fillColor=none;horizontalStack=0;resizeParent=1;resizeParentMax=0;resizeLast=0;collapsible=1;marginBottom=0;whiteSpace=wrap;html=1;" parent="UTaYGyWFaG9Oa4qHJL6B-15" vertex="1">
          <mxGeometry x="120" y="128" width="160" height="52" as="geometry">
            <mxRectangle x="860" y="-490" width="100" height="30" as="alternateBounds" />
          </mxGeometry>
        </mxCell>
        <mxCell id="L9ycZ2wKz4MPZfXjeffK-25" value="+ v2/endpoint: Resource" style="text;strokeColor=none;fillColor=none;align=left;verticalAlign=top;spacingLeft=4;spacingRight=4;overflow=hidden;rotatable=0;points=[[0,0.5],[1,0.5]];portConstraint=eastwest;whiteSpace=wrap;html=1;" parent="L9ycZ2wKz4MPZfXjeffK-24" vertex="1">
          <mxGeometry y="26" width="160" height="26" as="geometry" />
        </mxCell>
        <mxCell id="L9ycZ2wKz4MPZfXjeffK-28" value="resource" style="shape=folder;fontStyle=1;spacingTop=10;tabWidth=40;tabHeight=14;tabPosition=left;html=1;whiteSpace=wrap;" parent="UTaYGyWFaG9Oa4qHJL6B-15" vertex="1">
          <mxGeometry x="28" y="430" width="70" height="70" as="geometry" />
        </mxCell>
        <mxCell id="L9ycZ2wKz4MPZfXjeffK-29" value="assembler" style="shape=folder;fontStyle=1;spacingTop=10;tabWidth=40;tabHeight=14;tabPosition=left;html=1;whiteSpace=wrap;" parent="UTaYGyWFaG9Oa4qHJL6B-15" vertex="1">
          <mxGeometry x="30" y="610" width="70" height="50" as="geometry" />
        </mxCell>
        <mxCell id="L9ycZ2wKz4MPZfXjeffK-35" value="" style="edgeStyle=orthogonalEdgeStyle;rounded=0;orthogonalLoop=1;jettySize=auto;html=1;entryX=0.486;entryY=0.005;entryDx=0;entryDy=0;entryPerimeter=0;endArrow=open;endFill=0;" parent="UTaYGyWFaG9Oa4qHJL6B-15" source="L9ycZ2wKz4MPZfXjeffK-30" target="L9ycZ2wKz4MPZfXjeffK-31" edge="1">
          <mxGeometry relative="1" as="geometry" />
        </mxCell>
        <mxCell id="UTaYGyWFaG9Oa4qHJL6B-28" style="edgeStyle=orthogonalEdgeStyle;rounded=0;orthogonalLoop=1;jettySize=auto;html=1;endArrow=open;endFill=0;exitX=0.5;exitY=1;exitDx=0;exitDy=0;" parent="UTaYGyWFaG9Oa4qHJL6B-15" source="UTaYGyWFaG9Oa4qHJL6B-51" target="UTaYGyWFaG9Oa4qHJL6B-26" edge="1">
          <mxGeometry relative="1" as="geometry" />
        </mxCell>
        <mxCell id="L9ycZ2wKz4MPZfXjeffK-30" value="IAssembler" style="html=1;whiteSpace=wrap;" parent="UTaYGyWFaG9Oa4qHJL6B-15" vertex="1">
          <mxGeometry x="127" y="610" width="83" height="50" as="geometry" />
        </mxCell>
        <mxCell id="L9ycZ2wKz4MPZfXjeffK-31" value="ResourceAssembler" style="swimlane;fontStyle=1;align=center;verticalAlign=top;childLayout=stackLayout;horizontal=1;startSize=26;horizontalStack=0;resizeParent=1;resizeParentMax=0;resizeLast=0;collapsible=1;marginBottom=0;whiteSpace=wrap;html=1;" parent="UTaYGyWFaG9Oa4qHJL6B-15" vertex="1">
          <mxGeometry x="30" y="700" width="200" height="52" as="geometry" />
        </mxCell>
        <mxCell id="L9ycZ2wKz4MPZfXjeffK-34" value="+ convert(outputModel): Resource" style="text;strokeColor=none;fillColor=none;align=left;verticalAlign=top;spacingLeft=4;spacingRight=4;overflow=hidden;rotatable=0;points=[[0,0.5],[1,0.5]];portConstraint=eastwest;whiteSpace=wrap;html=1;" parent="L9ycZ2wKz4MPZfXjeffK-31" vertex="1">
          <mxGeometry y="26" width="200" height="26" as="geometry" />
        </mxCell>
        <mxCell id="L9ycZ2wKz4MPZfXjeffK-41" value="Resource" style="swimlane;fontStyle=1;align=center;verticalAlign=top;childLayout=stackLayout;horizontal=1;startSize=26;horizontalStack=0;resizeParent=1;resizeParentMax=0;resizeLast=0;collapsible=1;marginBottom=0;whiteSpace=wrap;html=1;" parent="UTaYGyWFaG9Oa4qHJL6B-15" vertex="1">
          <mxGeometry x="127" y="430" width="200" height="70" as="geometry" />
        </mxCell>
        <mxCell id="L9ycZ2wKz4MPZfXjeffK-42" value="- field1: type&lt;div&gt;- field2: type&lt;/div&gt;" style="text;strokeColor=none;fillColor=none;align=left;verticalAlign=top;spacingLeft=4;spacingRight=4;overflow=hidden;rotatable=0;points=[[0,0.5],[1,0.5]];portConstraint=eastwest;whiteSpace=wrap;html=1;" parent="L9ycZ2wKz4MPZfXjeffK-41" vertex="1">
          <mxGeometry y="26" width="200" height="44" as="geometry" />
        </mxCell>
        <mxCell id="L9ycZ2wKz4MPZfXjeffK-51" value="Command" style="swimlane;fontStyle=1;align=center;verticalAlign=top;childLayout=stackLayout;horizontal=1;startSize=26;horizontalStack=0;resizeParent=1;resizeParentMax=0;resizeLast=0;collapsible=1;marginBottom=0;whiteSpace=wrap;html=1;" parent="UTaYGyWFaG9Oa4qHJL6B-15" vertex="1">
          <mxGeometry x="126" y="320" width="200" height="98" as="geometry" />
        </mxCell>
        <mxCell id="L9ycZ2wKz4MPZfXjeffK-52" value="- inputField1: type&lt;div&gt;-&amp;nbsp;&lt;span style=&quot;background-color: transparent; color: light-dark(rgb(0, 0, 0), rgb(255, 255, 255));&quot;&gt;inputField2&lt;/span&gt;&lt;span style=&quot;background-color: transparent; color: light-dark(rgb(0, 0, 0), rgb(255, 255, 255));&quot;&gt;: type&lt;/span&gt;&lt;/div&gt;" style="text;strokeColor=none;fillColor=none;align=left;verticalAlign=top;spacingLeft=4;spacingRight=4;overflow=hidden;rotatable=0;points=[[0,0.5],[1,0.5]];portConstraint=eastwest;whiteSpace=wrap;html=1;" parent="L9ycZ2wKz4MPZfXjeffK-51" vertex="1">
          <mxGeometry y="26" width="200" height="34" as="geometry" />
        </mxCell>
        <mxCell id="L9ycZ2wKz4MPZfXjeffK-61" value="" style="line;strokeWidth=1;fillColor=none;align=left;verticalAlign=middle;spacingTop=-1;spacingLeft=3;spacingRight=3;rotatable=0;labelPosition=right;points=[];portConstraint=eastwest;strokeColor=inherit;" parent="L9ycZ2wKz4MPZfXjeffK-51" vertex="1">
          <mxGeometry y="60" width="200" height="8" as="geometry" />
        </mxCell>
        <mxCell id="L9ycZ2wKz4MPZfXjeffK-60" value="+ execute(): DTO" style="text;strokeColor=none;fillColor=none;align=left;verticalAlign=top;spacingLeft=4;spacingRight=4;overflow=hidden;rotatable=0;points=[[0,0.5],[1,0.5]];portConstraint=eastwest;whiteSpace=wrap;html=1;" parent="L9ycZ2wKz4MPZfXjeffK-51" vertex="1">
          <mxGeometry y="68" width="200" height="30" as="geometry" />
        </mxCell>
        <mxCell id="L9ycZ2wKz4MPZfXjeffK-70" value="dto" style="shape=folder;fontStyle=1;spacingTop=10;tabWidth=40;tabHeight=14;tabPosition=left;html=1;whiteSpace=wrap;" parent="UTaYGyWFaG9Oa4qHJL6B-15" vertex="1">
          <mxGeometry x="28" y="520" width="70" height="70" as="geometry" />
        </mxCell>
        <mxCell id="L9ycZ2wKz4MPZfXjeffK-88" value="DTO" style="swimlane;fontStyle=1;align=center;verticalAlign=top;childLayout=stackLayout;horizontal=1;startSize=26;horizontalStack=0;resizeParent=1;resizeParentMax=0;resizeLast=0;collapsible=1;marginBottom=0;whiteSpace=wrap;html=1;" parent="UTaYGyWFaG9Oa4qHJL6B-15" vertex="1">
          <mxGeometry x="129" y="520" width="200" height="70" as="geometry" />
        </mxCell>
        <mxCell id="L9ycZ2wKz4MPZfXjeffK-89" value="- field1: type&lt;div&gt;- field2: type&lt;/div&gt;" style="text;strokeColor=none;fillColor=none;align=left;verticalAlign=top;spacingLeft=4;spacingRight=4;overflow=hidden;rotatable=0;points=[[0,0.5],[1,0.5]];portConstraint=eastwest;whiteSpace=wrap;html=1;" parent="L9ycZ2wKz4MPZfXjeffK-88" vertex="1">
          <mxGeometry y="26" width="200" height="44" as="geometry" />
        </mxCell>
        <mxCell id="UTaYGyWFaG9Oa4qHJL6B-26" value="DTOMapper" style="swimlane;fontStyle=1;align=center;verticalAlign=top;childLayout=stackLayout;horizontal=1;startSize=26;horizontalStack=0;resizeParent=1;resizeParentMax=0;resizeLast=0;collapsible=1;marginBottom=0;whiteSpace=wrap;html=1;" parent="UTaYGyWFaG9Oa4qHJL6B-15" vertex="1">
          <mxGeometry x="240" y="700" width="200" height="52" as="geometry" />
        </mxCell>
        <mxCell id="UTaYGyWFaG9Oa4qHJL6B-27" value="+ convert(dto): InputModel" style="text;strokeColor=none;fillColor=none;align=left;verticalAlign=top;spacingLeft=4;spacingRight=4;overflow=hidden;rotatable=0;points=[[0,0.5],[1,0.5]];portConstraint=eastwest;whiteSpace=wrap;html=1;" parent="UTaYGyWFaG9Oa4qHJL6B-26" vertex="1">
          <mxGeometry y="26" width="200" height="26" as="geometry" />
        </mxCell>
        <mxCell id="UTaYGyWFaG9Oa4qHJL6B-51" value="IMapper" style="html=1;whiteSpace=wrap;" parent="UTaYGyWFaG9Oa4qHJL6B-15" vertex="1">
          <mxGeometry x="247" y="610" width="83" height="50" as="geometry" />
        </mxCell>
        <mxCell id="UTaYGyWFaG9Oa4qHJL6B-53" value="" style="verticalLabelPosition=bottom;verticalAlign=top;html=1;shape=mxgraph.basic.rect;fillColor2=none;strokeWidth=1;size=20;indent=5;fillColor=none;dashed=1;" parent="UTaYGyWFaG9Oa4qHJL6B-15" vertex="1">
          <mxGeometry x="310" y="40" width="210" height="150" as="geometry" />
        </mxCell>
        <mxCell id="UTaYGyWFaG9Oa4qHJL6B-54" value="Consumer" style="swimlane;fontStyle=0;childLayout=stackLayout;horizontal=1;startSize=26;horizontalStack=0;resizeParent=1;resizeParentMax=0;resizeLast=0;collapsible=1;marginBottom=0;whiteSpace=wrap;html=1;" parent="UTaYGyWFaG9Oa4qHJL6B-15" vertex="1">
          <mxGeometry x="400" y="64" width="110" height="52" as="geometry">
            <mxRectangle x="170" y="64" width="100" height="30" as="alternateBounds" />
          </mxGeometry>
        </mxCell>
        <mxCell id="UTaYGyWFaG9Oa4qHJL6B-55" value="+ consume(): Void" style="text;align=left;verticalAlign=top;spacingLeft=4;spacingRight=4;overflow=hidden;rotatable=0;points=[[0,0.5],[1,0.5]];portConstraint=eastwest;whiteSpace=wrap;html=1;" parent="UTaYGyWFaG9Oa4qHJL6B-54" vertex="1">
          <mxGeometry y="26" width="110" height="26" as="geometry" />
        </mxCell>
        <mxCell id="UTaYGyWFaG9Oa4qHJL6B-56" value="consumer" style="shape=folder;fontStyle=1;spacingTop=10;tabWidth=40;tabHeight=14;tabPosition=left;html=1;whiteSpace=wrap;" parent="UTaYGyWFaG9Oa4qHJL6B-15" vertex="1">
          <mxGeometry x="318" y="64" width="70" height="50" as="geometry" />
        </mxCell>
        <mxCell id="UTaYGyWFaG9Oa4qHJL6B-57" style="edgeStyle=orthogonalEdgeStyle;rounded=0;orthogonalLoop=1;jettySize=auto;html=1;entryX=0.519;entryY=0.001;entryDx=0;entryDy=0;entryPerimeter=0;endArrow=open;endFill=0;" parent="UTaYGyWFaG9Oa4qHJL6B-15" source="UTaYGyWFaG9Oa4qHJL6B-53" target="L9ycZ2wKz4MPZfXjeffK-46" edge="1">
          <mxGeometry relative="1" as="geometry" />
        </mxCell>
        <mxCell id="UTaYGyWFaG9Oa4qHJL6B-58" value="" style="group" parent="UTaYGyWFaG9Oa4qHJL6B-15" vertex="1" connectable="0">
          <mxGeometry x="530" y="300" width="120" height="130" as="geometry" />
        </mxCell>
        <mxCell id="L9ycZ2wKz4MPZfXjeffK-54" value="Classes designed for continuous refinement, and therefore inherently unstable.&amp;nbsp;" style="strokeWidth=2;html=1;shape=mxgraph.flowchart.annotation_2;align=left;labelPosition=right;pointerEvents=1;whiteSpace=wrap;" parent="UTaYGyWFaG9Oa4qHJL6B-58" vertex="1">
          <mxGeometry y="30" width="120" height="100" as="geometry" />
        </mxCell>
        <mxCell id="UTaYGyWFaG9Oa4qHJL6B-14" value="Info" style="rounded=1;whiteSpace=wrap;html=1;arcSize=50;strokeColor=#314354;strokeWidth=1;fillColor=#647687;whiteSpace=wrap;align=left;verticalAlign=middle;spacingLeft=0;fontStyle=1;fontSize=14;spacing=10;fontColor=#ffffff;container=0;" parent="UTaYGyWFaG9Oa4qHJL6B-58" vertex="1">
          <mxGeometry x="71" width="45" height="20" as="geometry" />
        </mxCell>
        <mxCell id="R0e7OgFwDXOUdVAIjQrn-42" value="dto.mapper" style="shape=folder;fontStyle=1;spacingTop=10;tabWidth=40;tabHeight=14;tabPosition=left;html=1;whiteSpace=wrap;" parent="UTaYGyWFaG9Oa4qHJL6B-15" vertex="1">
          <mxGeometry x="360" y="610" width="70" height="50" as="geometry" />
        </mxCell>
        <mxCell id="UTaYGyWFaG9Oa4qHJL6B-22" value="" style="group" parent="1" vertex="1" connectable="0">
          <mxGeometry x="630" y="-490" width="510" height="350" as="geometry" />
        </mxCell>
        <mxCell id="kY3cHxhV4RNwmErgkKas-79" value="" style="shape=folder;fontStyle=1;spacingTop=10;tabWidth=40;tabHeight=14;tabPosition=left;html=1;whiteSpace=wrap;" parent="UTaYGyWFaG9Oa4qHJL6B-22" vertex="1">
          <mxGeometry width="380" height="350" as="geometry" />
        </mxCell>
        <mxCell id="kY3cHxhV4RNwmErgkKas-80" value="io" style="shape=folder;fontStyle=1;spacingTop=10;tabWidth=40;tabHeight=14;tabPosition=left;html=1;whiteSpace=wrap;" parent="UTaYGyWFaG9Oa4qHJL6B-22" vertex="1">
          <mxGeometry x="20" y="284" width="70" height="50" as="geometry" />
        </mxCell>
        <mxCell id="7TCIBlmL7g6_WKHloara-1" value="http" style="shape=folder;fontStyle=1;spacingTop=10;tabWidth=40;tabHeight=14;tabPosition=left;html=1;whiteSpace=wrap;" parent="UTaYGyWFaG9Oa4qHJL6B-22" vertex="1">
          <mxGeometry x="20" y="40" width="70" height="50" as="geometry" />
        </mxCell>
        <mxCell id="7TCIBlmL7g6_WKHloara-2" value="producer" style="shape=folder;fontStyle=1;spacingTop=10;tabWidth=40;tabHeight=14;tabPosition=left;html=1;whiteSpace=wrap;" parent="UTaYGyWFaG9Oa4qHJL6B-22" vertex="1">
          <mxGeometry x="20" y="208" width="70" height="50" as="geometry" />
        </mxCell>
        <mxCell id="7TCIBlmL7g6_WKHloara-4" value="http.entity" style="shape=folder;fontStyle=1;spacingTop=10;tabWidth=40;tabHeight=14;tabPosition=left;html=1;whiteSpace=wrap;" parent="UTaYGyWFaG9Oa4qHJL6B-22" vertex="1">
          <mxGeometry x="20" y="110" width="70" height="70" as="geometry" />
        </mxCell>
        <mxCell id="UTaYGyWFaG9Oa4qHJL6B-1" value="IResponseEntity" style="swimlane;fontStyle=1;align=center;verticalAlign=top;childLayout=stackLayout;horizontal=1;startSize=26;horizontalStack=0;resizeParent=1;resizeParentMax=0;resizeLast=0;collapsible=1;marginBottom=0;whiteSpace=wrap;html=1;" parent="UTaYGyWFaG9Oa4qHJL6B-22" vertex="1">
          <mxGeometry x="138" y="110" width="150" height="70" as="geometry" />
        </mxCell>
        <mxCell id="UTaYGyWFaG9Oa4qHJL6B-2" value="- field1: type&lt;div&gt;- field2: type&lt;/div&gt;" style="text;strokeColor=none;fillColor=none;align=left;verticalAlign=top;spacingLeft=4;spacingRight=4;overflow=hidden;rotatable=0;points=[[0,0.5],[1,0.5]];portConstraint=eastwest;whiteSpace=wrap;html=1;" parent="UTaYGyWFaG9Oa4qHJL6B-1" vertex="1">
          <mxGeometry y="26" width="150" height="44" as="geometry" />
        </mxCell>
        <mxCell id="UTaYGyWFaG9Oa4qHJL6B-3" value="Producer" style="swimlane;fontStyle=0;childLayout=stackLayout;horizontal=1;startSize=26;fillColor=none;horizontalStack=0;resizeParent=1;resizeParentMax=0;resizeLast=0;collapsible=1;marginBottom=0;whiteSpace=wrap;html=1;" parent="UTaYGyWFaG9Oa4qHJL6B-22" vertex="1">
          <mxGeometry x="138" y="208" width="152" height="52" as="geometry">
            <mxRectangle x="860" y="-490" width="100" height="30" as="alternateBounds" />
          </mxGeometry>
        </mxCell>
        <mxCell id="UTaYGyWFaG9Oa4qHJL6B-4" value="+ produce(): Void" style="text;strokeColor=none;fillColor=none;align=left;verticalAlign=top;spacingLeft=4;spacingRight=4;overflow=hidden;rotatable=0;points=[[0,0.5],[1,0.5]];portConstraint=eastwest;whiteSpace=wrap;html=1;" parent="UTaYGyWFaG9Oa4qHJL6B-3" vertex="1">
          <mxGeometry y="26" width="152" height="26" as="geometry" />
        </mxCell>
        <mxCell id="UTaYGyWFaG9Oa4qHJL6B-5" value="IHttpClient" style="html=1;whiteSpace=wrap;" parent="UTaYGyWFaG9Oa4qHJL6B-22" vertex="1">
          <mxGeometry x="138" y="40" width="150" height="50" as="geometry" />
        </mxCell>
        <mxCell id="UTaYGyWFaG9Oa4qHJL6B-61" value="" style="group" parent="UTaYGyWFaG9Oa4qHJL6B-22" vertex="1" connectable="0">
          <mxGeometry x="390" y="100" width="120" height="125" as="geometry" />
        </mxCell>
        <mxCell id="kY3cHxhV4RNwmErgkKas-81" value="Classes that interact with external services, generally moderately stable." style="strokeWidth=2;html=1;shape=mxgraph.flowchart.annotation_2;align=left;labelPosition=right;pointerEvents=1;whiteSpace=wrap;" parent="UTaYGyWFaG9Oa4qHJL6B-61" vertex="1">
          <mxGeometry y="25" width="120" height="100" as="geometry" />
        </mxCell>
        <mxCell id="UTaYGyWFaG9Oa4qHJL6B-18" value="Info" style="rounded=1;whiteSpace=wrap;html=1;arcSize=50;strokeColor=#314354;strokeWidth=1;fillColor=#647687;whiteSpace=wrap;align=left;verticalAlign=middle;spacingLeft=0;fontStyle=1;fontSize=14;spacing=10;fontColor=#ffffff;" parent="UTaYGyWFaG9Oa4qHJL6B-61" vertex="1">
          <mxGeometry x="70" width="45" height="20" as="geometry" />
        </mxCell>
        <mxCell id="UTaYGyWFaG9Oa4qHJL6B-23" value="" style="group" parent="1" vertex="1" connectable="0">
          <mxGeometry x="640" y="-1370" width="500" height="680" as="geometry" />
        </mxCell>
        <mxCell id="L9ycZ2wKz4MPZfXjeffK-62" value="" style="shape=folder;fontStyle=1;spacingTop=10;tabWidth=40;tabHeight=14;tabPosition=left;html=1;whiteSpace=wrap;" parent="UTaYGyWFaG9Oa4qHJL6B-23" vertex="1">
          <mxGeometry width="380" height="680" as="geometry" />
        </mxCell>
        <mxCell id="L9ycZ2wKz4MPZfXjeffK-71" value="mapper" style="shape=folder;fontStyle=1;spacingTop=10;tabWidth=40;tabHeight=14;tabPosition=left;html=1;whiteSpace=wrap;" parent="UTaYGyWFaG9Oa4qHJL6B-23" vertex="1">
          <mxGeometry x="20" y="490" width="70" height="50" as="geometry" />
        </mxCell>
        <mxCell id="L9ycZ2wKz4MPZfXjeffK-72" value="service" style="shape=folder;fontStyle=1;spacingTop=10;tabWidth=40;tabHeight=14;tabPosition=left;html=1;whiteSpace=wrap;" parent="UTaYGyWFaG9Oa4qHJL6B-23" vertex="1">
          <mxGeometry x="20" y="50" width="70" height="50" as="geometry" />
        </mxCell>
        <mxCell id="L9ycZ2wKz4MPZfXjeffK-91" value="domain" style="shape=folder;fontStyle=1;spacingTop=10;tabWidth=40;tabHeight=14;tabPosition=left;html=1;whiteSpace=wrap;" parent="UTaYGyWFaG9Oa4qHJL6B-23" vertex="1">
          <mxGeometry x="20" y="260" width="70" height="70" as="geometry" />
        </mxCell>
        <mxCell id="kY3cHxhV4RNwmErgkKas-1" value="" style="edgeStyle=orthogonalEdgeStyle;rounded=0;orthogonalLoop=1;jettySize=auto;html=1;entryX=0.5;entryY=0;entryDx=0;entryDy=0;endArrow=open;endFill=0;" parent="UTaYGyWFaG9Oa4qHJL6B-23" source="L9ycZ2wKz4MPZfXjeffK-92" target="L9ycZ2wKz4MPZfXjeffK-93" edge="1">
          <mxGeometry relative="1" as="geometry" />
        </mxCell>
        <mxCell id="L9ycZ2wKz4MPZfXjeffK-92" value="Facade" style="html=1;whiteSpace=wrap;" parent="UTaYGyWFaG9Oa4qHJL6B-23" vertex="1">
          <mxGeometry x="130" y="50" width="220" height="50" as="geometry" />
        </mxCell>
        <mxCell id="L9ycZ2wKz4MPZfXjeffK-93" value="UseCaseService" style="swimlane;fontStyle=1;align=center;verticalAlign=top;childLayout=stackLayout;horizontal=1;startSize=26;horizontalStack=0;resizeParent=1;resizeParentMax=0;resizeLast=0;collapsible=1;marginBottom=0;whiteSpace=wrap;html=1;" parent="UTaYGyWFaG9Oa4qHJL6B-23" vertex="1">
          <mxGeometry x="130" y="130" width="220" height="88" as="geometry" />
        </mxCell>
        <mxCell id="L9ycZ2wKz4MPZfXjeffK-94" value="- daoFactory?: DAOFactory" style="text;strokeColor=none;fillColor=none;align=left;verticalAlign=top;spacingLeft=4;spacingRight=4;overflow=hidden;rotatable=0;points=[[0,0.5],[1,0.5]];portConstraint=eastwest;whiteSpace=wrap;html=1;" parent="L9ycZ2wKz4MPZfXjeffK-93" vertex="1">
          <mxGeometry y="26" width="220" height="24" as="geometry" />
        </mxCell>
        <mxCell id="L9ycZ2wKz4MPZfXjeffK-95" value="" style="line;strokeWidth=1;fillColor=none;align=left;verticalAlign=middle;spacingTop=-1;spacingLeft=3;spacingRight=3;rotatable=0;labelPosition=right;points=[];portConstraint=eastwest;strokeColor=inherit;" parent="L9ycZ2wKz4MPZfXjeffK-93" vertex="1">
          <mxGeometry y="50" width="220" height="8" as="geometry" />
        </mxCell>
        <mxCell id="L9ycZ2wKz4MPZfXjeffK-96" value="+ operation(inputModel: Model): Model" style="text;strokeColor=none;fillColor=none;align=left;verticalAlign=top;spacingLeft=4;spacingRight=4;overflow=hidden;rotatable=0;points=[[0,0.5],[1,0.5]];portConstraint=eastwest;whiteSpace=wrap;html=1;" parent="L9ycZ2wKz4MPZfXjeffK-93" vertex="1">
          <mxGeometry y="58" width="220" height="30" as="geometry" />
        </mxCell>
        <mxCell id="kY3cHxhV4RNwmErgkKas-2" value="InputModel" style="swimlane;fontStyle=1;align=center;verticalAlign=top;childLayout=stackLayout;horizontal=1;startSize=26;horizontalStack=0;resizeParent=1;resizeParentMax=0;resizeLast=0;collapsible=1;marginBottom=0;whiteSpace=wrap;html=1;" parent="UTaYGyWFaG9Oa4qHJL6B-23" vertex="1">
          <mxGeometry x="130" y="260" width="220" height="70" as="geometry" />
        </mxCell>
        <mxCell id="kY3cHxhV4RNwmErgkKas-3" value="- inputField1: type&lt;div&gt;-&amp;nbsp;&lt;span style=&quot;background-color: transparent; color: light-dark(rgb(0, 0, 0), rgb(255, 255, 255));&quot;&gt;inputField2&lt;/span&gt;&lt;span style=&quot;background-color: transparent; color: light-dark(rgb(0, 0, 0), rgb(255, 255, 255));&quot;&gt;: type&lt;/span&gt;&lt;/div&gt;" style="text;strokeColor=none;fillColor=none;align=left;verticalAlign=top;spacingLeft=4;spacingRight=4;overflow=hidden;rotatable=0;points=[[0,0.5],[1,0.5]];portConstraint=eastwest;whiteSpace=wrap;html=1;" parent="kY3cHxhV4RNwmErgkKas-2" vertex="1">
          <mxGeometry y="26" width="220" height="44" as="geometry" />
        </mxCell>
        <mxCell id="kY3cHxhV4RNwmErgkKas-7" value="OutputModel" style="swimlane;fontStyle=1;align=center;verticalAlign=top;childLayout=stackLayout;horizontal=1;startSize=26;horizontalStack=0;resizeParent=1;resizeParentMax=0;resizeLast=0;collapsible=1;marginBottom=0;whiteSpace=wrap;html=1;" parent="UTaYGyWFaG9Oa4qHJL6B-23" vertex="1">
          <mxGeometry x="130" y="350" width="220" height="70" as="geometry" />
        </mxCell>
        <mxCell id="kY3cHxhV4RNwmErgkKas-8" value="- outputField1: type&lt;div&gt;-&amp;nbsp;&lt;span style=&quot;background-color: transparent; color: light-dark(rgb(0, 0, 0), rgb(255, 255, 255));&quot;&gt;outputField2&lt;/span&gt;&lt;span style=&quot;background-color: transparent; color: light-dark(rgb(0, 0, 0), rgb(255, 255, 255));&quot;&gt;: type&lt;/span&gt;&lt;/div&gt;" style="text;strokeColor=none;fillColor=none;align=left;verticalAlign=top;spacingLeft=4;spacingRight=4;overflow=hidden;rotatable=0;points=[[0,0.5],[1,0.5]];portConstraint=eastwest;whiteSpace=wrap;html=1;" parent="kY3cHxhV4RNwmErgkKas-7" vertex="1">
          <mxGeometry y="26" width="220" height="44" as="geometry" />
        </mxCell>
        <mxCell id="kY3cHxhV4RNwmErgkKas-15" value="" style="edgeStyle=orthogonalEdgeStyle;rounded=0;orthogonalLoop=1;jettySize=auto;html=1;entryX=0.5;entryY=0;entryDx=0;entryDy=0;endArrow=open;endFill=0;" parent="UTaYGyWFaG9Oa4qHJL6B-23" source="kY3cHxhV4RNwmErgkKas-10" target="kY3cHxhV4RNwmErgkKas-11" edge="1">
          <mxGeometry relative="1" as="geometry" />
        </mxCell>
        <mxCell id="kY3cHxhV4RNwmErgkKas-10" value="IMapper" style="html=1;whiteSpace=wrap;" parent="UTaYGyWFaG9Oa4qHJL6B-23" vertex="1">
          <mxGeometry x="130" y="490" width="220" height="50" as="geometry" />
        </mxCell>
        <mxCell id="kY3cHxhV4RNwmErgkKas-11" value="Mapper" style="swimlane;fontStyle=1;align=center;verticalAlign=top;childLayout=stackLayout;horizontal=1;startSize=26;horizontalStack=0;resizeParent=1;resizeParentMax=0;resizeLast=0;collapsible=1;marginBottom=0;whiteSpace=wrap;html=1;" parent="UTaYGyWFaG9Oa4qHJL6B-23" vertex="1">
          <mxGeometry x="130" y="580" width="220" height="70" as="geometry" />
        </mxCell>
        <mxCell id="kY3cHxhV4RNwmErgkKas-14" value="+ toEntity(model: Model): Entity&lt;div&gt;+ toModel(entity: Entity): Model&lt;/div&gt;" style="text;strokeColor=none;fillColor=none;align=left;verticalAlign=top;spacingLeft=4;spacingRight=4;overflow=hidden;rotatable=0;points=[[0,0.5],[1,0.5]];portConstraint=eastwest;whiteSpace=wrap;html=1;" parent="kY3cHxhV4RNwmErgkKas-11" vertex="1">
          <mxGeometry y="26" width="220" height="44" as="geometry" />
        </mxCell>
        <mxCell id="UTaYGyWFaG9Oa4qHJL6B-59" value="" style="group" parent="UTaYGyWFaG9Oa4qHJL6B-23" vertex="1" connectable="0">
          <mxGeometry x="380" y="280" width="120" height="125" as="geometry" />
        </mxCell>
        <mxCell id="L9ycZ2wKz4MPZfXjeffK-87" value="Classes implementing use cases, each dedicated to a single &lt;br/&gt;component (for a microservice, typically a component within the same &lt;br/&gt;domain). These classes tend to be moderately unstable." style="strokeWidth=2;html=1;shape=mxgraph.flowchart.annotation_2;align=left;labelPosition=right;pointerEvents=1;" parent="UTaYGyWFaG9Oa4qHJL6B-59" vertex="1">
          <mxGeometry y="25" width="120" height="100" as="geometry" />
        </mxCell>
        <mxCell id="UTaYGyWFaG9Oa4qHJL6B-19" value="Info" style="rounded=1;whiteSpace=wrap;html=1;arcSize=50;strokeColor=#314354;strokeWidth=1;fillColor=#647687;whiteSpace=wrap;align=left;verticalAlign=middle;spacingLeft=0;fontStyle=1;fontSize=14;spacing=10;fontColor=#ffffff;" parent="UTaYGyWFaG9Oa4qHJL6B-59" vertex="1">
          <mxGeometry x="70" width="45" height="20" as="geometry" />
        </mxCell>
        <mxCell id="UTaYGyWFaG9Oa4qHJL6B-63" value="" style="edgeStyle=orthogonalEdgeStyle;rounded=0;orthogonalLoop=1;jettySize=auto;html=1;endArrow=open;endFill=0;" parent="1" source="kY3cHxhV4RNwmErgkKas-17" edge="1">
          <mxGeometry relative="1" as="geometry">
            <Array as="points">
              <mxPoint x="180" y="-1490" />
              <mxPoint x="290" y="-1490" />
            </Array>
            <mxPoint x="290" y="-1220" as="targetPoint" />
            <mxPoint x="180" y="-1820" as="sourcePoint" />
          </mxGeometry>
        </mxCell>
        <mxCell id="L9ycZ2wKz4MPZfXjeffK-7" value="CORE" style="shape=folder;fontStyle=1;spacingTop=10;tabWidth=40;tabHeight=14;tabPosition=left;html=1;whiteSpace=wrap;fillColor=#1ba1e2;strokeColor=#006EAF;fontColor=#ffffff;" parent="1" vertex="1">
          <mxGeometry x="215" y="-1230" width="150" height="100" as="geometry" />
        </mxCell>
        <mxCell id="-sy-aIghMSAc_uhaI67l-1" value="OUTBOUND" style="shape=folder;fontStyle=1;spacingTop=10;tabWidth=40;tabHeight=14;tabPosition=left;html=1;whiteSpace=wrap;fillColor=#1ba1e2;strokeColor=#006EAF;fontColor=#ffffff;" vertex="1" parent="1">
          <mxGeometry x="215" y="-1900" width="150" height="100" as="geometry" />
        </mxCell>
        <mxCell id="-sy-aIghMSAc_uhaI67l-2" style="edgeStyle=orthogonalEdgeStyle;rounded=0;orthogonalLoop=1;jettySize=auto;html=1;entryX=0.5;entryY=1;entryDx=0;entryDy=0;entryPerimeter=0;endArrow=none;endFill=0;" edge="1" parent="1" source="kY3cHxhV4RNwmErgkKas-17" target="-sy-aIghMSAc_uhaI67l-1">
          <mxGeometry relative="1" as="geometry" />
        </mxCell>
        <mxCell id="-sy-aIghMSAc_uhaI67l-10" value="belongs" style="edgeLabel;html=1;align=center;verticalAlign=middle;resizable=0;points=[];" vertex="1" connectable="0" parent="-sy-aIghMSAc_uhaI67l-2">
          <mxGeometry x="0.2484" y="-4" relative="1" as="geometry">
            <mxPoint x="-32" y="-14" as="offset" />
          </mxGeometry>
        </mxCell>
        <mxCell id="-sy-aIghMSAc_uhaI67l-3" style="edgeStyle=orthogonalEdgeStyle;rounded=0;orthogonalLoop=1;jettySize=auto;html=1;entryX=0.5;entryY=1;entryDx=0;entryDy=0;entryPerimeter=0;endArrow=none;endFill=0;" edge="1" parent="1" source="L9ycZ2wKz4MPZfXjeffK-1" target="-sy-aIghMSAc_uhaI67l-1">
          <mxGeometry relative="1" as="geometry" />
        </mxCell>
        <mxCell id="-sy-aIghMSAc_uhaI67l-12" value="belongs" style="edgeLabel;html=1;align=center;verticalAlign=middle;resizable=0;points=[];" vertex="1" connectable="0" parent="-sy-aIghMSAc_uhaI67l-3">
          <mxGeometry x="-0.0732" y="-1" relative="1" as="geometry">
            <mxPoint x="-5" y="-9" as="offset" />
          </mxGeometry>
        </mxCell>
        <mxCell id="-sy-aIghMSAc_uhaI67l-6" value="" style="group" vertex="1" connectable="0" parent="1">
          <mxGeometry x="-500" y="-500" width="500" height="490" as="geometry" />
        </mxCell>
        <mxCell id="kY3cHxhV4RNwmErgkKas-54" value="" style="shape=folder;fontStyle=1;spacingTop=10;tabWidth=40;tabHeight=14;tabPosition=left;html=1;whiteSpace=wrap;" parent="-sy-aIghMSAc_uhaI67l-6" vertex="1">
          <mxGeometry width="380" height="490" as="geometry" />
        </mxCell>
        <mxCell id="kY3cHxhV4RNwmErgkKas-56" value="dao" style="shape=folder;fontStyle=1;spacingTop=10;tabWidth=40;tabHeight=14;tabPosition=left;html=1;whiteSpace=wrap;" parent="-sy-aIghMSAc_uhaI67l-6" vertex="1">
          <mxGeometry x="20" y="50" width="70" height="50" as="geometry" />
        </mxCell>
        <mxCell id="kY3cHxhV4RNwmErgkKas-58" value="entity" style="shape=folder;fontStyle=1;spacingTop=10;tabWidth=40;tabHeight=14;tabPosition=left;html=1;whiteSpace=wrap;" parent="-sy-aIghMSAc_uhaI67l-6" vertex="1">
          <mxGeometry x="20" y="314" width="70" height="70" as="geometry" />
        </mxCell>
        <mxCell id="kY3cHxhV4RNwmErgkKas-77" style="edgeStyle=orthogonalEdgeStyle;rounded=0;orthogonalLoop=1;jettySize=auto;html=1;endArrow=open;endFill=0;" parent="-sy-aIghMSAc_uhaI67l-6" source="kY3cHxhV4RNwmErgkKas-61" target="kY3cHxhV4RNwmErgkKas-73" edge="1">
          <mxGeometry relative="1" as="geometry" />
        </mxCell>
        <mxCell id="kY3cHxhV4RNwmErgkKas-61" value="DAOFactory" style="swimlane;fontStyle=1;align=center;verticalAlign=top;childLayout=stackLayout;horizontal=1;startSize=26;horizontalStack=0;resizeParent=1;resizeParentMax=0;resizeLast=0;collapsible=1;marginBottom=0;whiteSpace=wrap;html=1;" parent="-sy-aIghMSAc_uhaI67l-6" vertex="1">
          <mxGeometry x="130" y="50" width="220" height="88" as="geometry" />
        </mxCell>
        <mxCell id="kY3cHxhV4RNwmErgkKas-62" value="- repository: JPARepository" style="text;strokeColor=none;fillColor=none;align=left;verticalAlign=top;spacingLeft=4;spacingRight=4;overflow=hidden;rotatable=0;points=[[0,0.5],[1,0.5]];portConstraint=eastwest;whiteSpace=wrap;html=1;" parent="kY3cHxhV4RNwmErgkKas-61" vertex="1">
          <mxGeometry y="26" width="220" height="24" as="geometry" />
        </mxCell>
        <mxCell id="kY3cHxhV4RNwmErgkKas-63" value="" style="line;strokeWidth=1;fillColor=none;align=left;verticalAlign=middle;spacingTop=-1;spacingLeft=3;spacingRight=3;rotatable=0;labelPosition=right;points=[];portConstraint=eastwest;strokeColor=inherit;" parent="kY3cHxhV4RNwmErgkKas-61" vertex="1">
          <mxGeometry y="50" width="220" height="8" as="geometry" />
        </mxCell>
        <mxCell id="kY3cHxhV4RNwmErgkKas-64" value="+ get(entity: Entity): JPARepository" style="text;strokeColor=none;fillColor=none;align=left;verticalAlign=top;spacingLeft=4;spacingRight=4;overflow=hidden;rotatable=0;points=[[0,0.5],[1,0.5]];portConstraint=eastwest;whiteSpace=wrap;html=1;" parent="kY3cHxhV4RNwmErgkKas-61" vertex="1">
          <mxGeometry y="58" width="220" height="30" as="geometry" />
        </mxCell>
        <mxCell id="kY3cHxhV4RNwmErgkKas-65" value="Entity" style="swimlane;fontStyle=1;align=center;verticalAlign=top;childLayout=stackLayout;horizontal=1;startSize=26;horizontalStack=0;resizeParent=1;resizeParentMax=0;resizeLast=0;collapsible=1;marginBottom=0;whiteSpace=wrap;html=1;" parent="-sy-aIghMSAc_uhaI67l-6" vertex="1">
          <mxGeometry x="130" y="398" width="220" height="70" as="geometry" />
        </mxCell>
        <mxCell id="kY3cHxhV4RNwmErgkKas-66" value="- field1: type&lt;div&gt;- f&lt;span style=&quot;background-color: transparent; color: light-dark(rgb(0, 0, 0), rgb(255, 255, 255));&quot;&gt;ield2&lt;/span&gt;&lt;span style=&quot;background-color: transparent; color: light-dark(rgb(0, 0, 0), rgb(255, 255, 255));&quot;&gt;: type&lt;/span&gt;&lt;/div&gt;" style="text;strokeColor=none;fillColor=none;align=left;verticalAlign=top;spacingLeft=4;spacingRight=4;overflow=hidden;rotatable=0;points=[[0,0.5],[1,0.5]];portConstraint=eastwest;whiteSpace=wrap;html=1;" parent="kY3cHxhV4RNwmErgkKas-65" vertex="1">
          <mxGeometry y="26" width="220" height="44" as="geometry" />
        </mxCell>
        <mxCell id="kY3cHxhV4RNwmErgkKas-73" value="Repository" style="swimlane;fontStyle=1;align=center;verticalAlign=top;childLayout=stackLayout;horizontal=1;startSize=26;horizontalStack=0;resizeParent=1;resizeParentMax=0;resizeLast=0;collapsible=1;marginBottom=0;whiteSpace=wrap;html=1;" parent="-sy-aIghMSAc_uhaI67l-6" vertex="1">
          <mxGeometry x="130" y="190" width="220" height="88" as="geometry" />
        </mxCell>
        <mxCell id="kY3cHxhV4RNwmErgkKas-76" value="+ findAll(): Entity&lt;div&gt;+ ...&lt;/div&gt;&lt;div&gt;+ delete(id: Long): Void&lt;/div&gt;" style="text;strokeColor=none;fillColor=none;align=left;verticalAlign=top;spacingLeft=4;spacingRight=4;overflow=hidden;rotatable=0;points=[[0,0.5],[1,0.5]];portConstraint=eastwest;whiteSpace=wrap;html=1;" parent="kY3cHxhV4RNwmErgkKas-73" vertex="1">
          <mxGeometry y="26" width="220" height="62" as="geometry" />
        </mxCell>
        <mxCell id="UTaYGyWFaG9Oa4qHJL6B-60" value="" style="group" parent="-sy-aIghMSAc_uhaI67l-6" vertex="1" connectable="0">
          <mxGeometry x="390" y="160" width="110" height="124" as="geometry" />
        </mxCell>
        <mxCell id="kY3cHxhV4RNwmErgkKas-57" value="Classes that access the database, generally moderately stable." style="strokeWidth=2;html=1;shape=mxgraph.flowchart.annotation_2;align=left;labelPosition=right;pointerEvents=1;whiteSpace=wrap;" parent="UTaYGyWFaG9Oa4qHJL6B-60" vertex="1">
          <mxGeometry y="24" width="110" height="100" as="geometry" />
        </mxCell>
        <mxCell id="UTaYGyWFaG9Oa4qHJL6B-17" value="Info" style="rounded=1;whiteSpace=wrap;html=1;arcSize=50;strokeColor=#314354;strokeWidth=1;fillColor=#647687;whiteSpace=wrap;align=left;verticalAlign=middle;spacingLeft=0;fontStyle=1;fontSize=14;spacing=10;fontColor=#ffffff;" parent="UTaYGyWFaG9Oa4qHJL6B-60" vertex="1">
          <mxGeometry x="60" width="45" height="20" as="geometry" />
        </mxCell>
        <mxCell id="-sy-aIghMSAc_uhaI67l-5" style="edgeStyle=orthogonalEdgeStyle;rounded=0;orthogonalLoop=1;jettySize=auto;html=1;endArrow=open;endFill=0;" edge="1" parent="-sy-aIghMSAc_uhaI67l-6" source="-sy-aIghMSAc_uhaI67l-4" target="kY3cHxhV4RNwmErgkKas-65">
          <mxGeometry relative="1" as="geometry" />
        </mxCell>
        <mxCell id="-sy-aIghMSAc_uhaI67l-4" value="IEnti&lt;span style=&quot;background-color: transparent; color: light-dark(rgb(0, 0, 0), rgb(255, 255, 255));&quot;&gt;ty&lt;/span&gt;" style="html=1;whiteSpace=wrap;" vertex="1" parent="-sy-aIghMSAc_uhaI67l-6">
          <mxGeometry x="130" y="314" width="220" height="50" as="geometry" />
        </mxCell>
        <mxCell id="-sy-aIghMSAc_uhaI67l-8" style="edgeStyle=orthogonalEdgeStyle;rounded=0;orthogonalLoop=1;jettySize=auto;html=1;endArrow=none;endFill=0;" edge="1" parent="1" source="-sy-aIghMSAc_uhaI67l-7" target="-sy-aIghMSAc_uhaI67l-1">
          <mxGeometry relative="1" as="geometry" />
        </mxCell>
        <mxCell id="-sy-aIghMSAc_uhaI67l-13" value="belongs" style="edgeLabel;html=1;align=center;verticalAlign=middle;resizable=0;points=[];rotation=90;" vertex="1" connectable="0" parent="-sy-aIghMSAc_uhaI67l-8">
          <mxGeometry x="0.09" y="1" relative="1" as="geometry">
            <mxPoint x="9" y="8" as="offset" />
          </mxGeometry>
        </mxCell>
        <mxCell id="-sy-aIghMSAc_uhaI67l-9" style="edgeStyle=orthogonalEdgeStyle;rounded=0;orthogonalLoop=1;jettySize=auto;html=1;endArrow=none;endFill=0;dashed=1;" edge="1" parent="1" source="-sy-aIghMSAc_uhaI67l-7" target="L9ycZ2wKz4MPZfXjeffK-14">
          <mxGeometry relative="1" as="geometry">
            <Array as="points">
              <mxPoint x="460" y="-1990" />
              <mxPoint x="460" y="-1990" />
            </Array>
          </mxGeometry>
        </mxCell>
        <mxCell id="-sy-aIghMSAc_uhaI67l-7" value="ADAPTERS" style="shape=folder;fontStyle=1;spacingTop=10;tabWidth=40;tabHeight=14;tabPosition=left;html=1;whiteSpace=wrap;fillColor=#1ba1e2;strokeColor=#006EAF;fontColor=#ffffff;" vertex="1" parent="1">
          <mxGeometry x="215" y="-2040" width="150" height="100" as="geometry" />
        </mxCell>
      </root>
    </mxGraphModel>
  </diagram>
</mxfile>
